<?xml version="1.0" encoding="utf-8"?>
<!-- Generator: Adobe Illustrator 16.0.0, SVG Export Plug-In . SVG Version: 6.00 Build 0)  -->
<!DOCTYPE svg PUBLIC "-//W3C//DTD SVG 1.1//EN" "http://www.w3.org/Graphics/SVG/1.1/DTD/svg11.dtd">
<svg version="1.1" id="Layer_1" xmlns="http://www.w3.org/2000/svg" xmlns:xlink="http://www.w3.org/1999/xlink" x="0px" y="0px"
	 width="170.598px" height="75.387px" viewBox="21.406 2.293 170.598 75.387" enable-background="new 21.406 2.293 170.598 75.387"
	 xml:space="preserve" opacity="0.7">
<path fill-rule="evenodd" clip-rule="evenodd" fill="#204E5F" d="M62.63,43.342c0-1.632,1.324-2.955,2.956-2.955
	s2.956,1.323,2.956,2.955c0,1.631-1.324,2.958-2.956,2.958S62.63,44.972,62.63,43.342L62.63,43.342z M92.382,13.677V4.688
	c0-1.32-0.875-2.395-1.944-2.395h-3.885c-1.067,0-1.942,1.075-1.942,2.395v13.703l-4.108,2.492v-7.271
	c0-1.068-0.872-1.944-1.94-1.944h-3.885c-1.069,0-1.943,0.876-1.943,1.944v11.989l-3.838,2.33v-5.836
	c0-1.067-0.877-1.944-1.944-1.944h-3.885c-1.067,0-1.942,0.877-1.942,1.944v10.55l-4.287,2.601l-0.179,18.578l9.109,0.18
	c13.754-5.359,25.007-12.982,33.758-22.866V17.028h14.824l4.289-4.109H93.632L92.382,13.677L92.382,13.677z M86.8,29.431
	c0-1.634,1.324-2.957,2.956-2.957c1.634,0,2.958,1.323,2.958,2.957c0,1.631-1.324,2.954-2.958,2.954
	C88.124,32.385,86.8,31.062,86.8,29.431L86.8,29.431z M74.281,37.256c0-1.634,1.324-2.954,2.956-2.954
	c1.634,0,2.956,1.32,2.956,2.954s-1.322,2.954-2.956,2.954C75.605,40.21,74.281,38.889,74.281,37.256L74.281,37.256z"/>
<polygon fill-rule="evenodd" clip-rule="evenodd" fill="#204E5F" points="101.865,23.127 107.319,23.127 107.319,19.134 
	101.865,19.134 101.865,23.127 "/>
<path fill-rule="evenodd" clip-rule="evenodd" fill="#204E5F" d="M192.004,77.68c-46.754-11.954-103.62-11.954-170.598,0
	C73.073,73.792,129.936,73.792,192.004,77.68L192.004,77.68z"/>
<path fill-rule="evenodd" clip-rule="evenodd" fill="#0299BA" d="M50.585,70.596c35.974-4.719,73.438-6.291,109.367-1.58
	c-0.931-4.754-4.758-9.934-11.484-15.554c8.931-14.407,14.049-29.29,15.358-44.652c-26.734-0.833-44.772,4.761-54.118,16.791
	C90.951,46.083,76.127,56.796,65.233,57.756c-11.254-0.065-19.292-0.722-24.112-1.97C45.6,60.41,48.754,65.344,50.585,70.596
	L50.585,70.596z"/>
</svg>
