<?xml version="1.0" encoding="utf-8"?>
<!-- Generator: Adobe Illustrator 16.0.0, SVG Export Plug-In . SVG Version: 6.00 Build 0)  -->
<!DOCTYPE svg PUBLIC "-//W3C//DTD SVG 1.1//EN" "http://www.w3.org/Graphics/SVG/1.1/DTD/svg11.dtd">
<svg version="1.1" id="Layer_1" xmlns="http://www.w3.org/2000/svg" xmlns:xlink="http://www.w3.org/1999/xlink" x="0px" y="0px"
	 width="336.89px" height="111.387px" viewBox="-107.163 -32.281 336.89 111.387"
	 enable-background="new -107.163 -32.281 336.89 111.387" xml:space="preserve">
<g opacity="0.6">
	<path fill="#1B1C20" d="M33.352,78.036c-3.254,0-6.008-1.342-7.829-2.23c-1.04-0.508-1.791-0.873-2.357-0.873
		s-1.318,0.365-2.358,0.873c-1.822,0.889-4.575,2.23-7.829,2.23c-3.292,0-6.083-1.361-7.93-2.262
		c-1.041-0.508-1.729-0.842-2.257-0.842s-1.216,0.334-2.256,0.842c-1.847,0.9-4.638,2.262-7.93,2.262
		c-3.332,0-6.162-1.381-8.034-2.293c-1-0.488-1.661-0.811-2.152-0.811s-1.151,0.322-2.152,0.811
		c-1.872,0.912-4.701,2.293-8.034,2.293c-3.253,0-6.005-1.342-7.826-2.23c-1.042-0.508-1.793-0.873-2.361-0.873
		s-1.32,0.365-2.361,0.873c-1.821,0.889-4.572,2.23-7.825,2.23c-0.295,0-0.535,0.24-0.535,0.535s0.239,0.535,0.535,0.535
		c3.5,0,6.385-1.408,8.294-2.34C-39.037,76.374-38.274,76-37.953,76c0.32,0,1.084,0.373,1.892,0.766
		c1.909,0.932,4.795,2.34,8.295,2.34c3.579,0,6.542-1.447,8.502-2.404C-18.556,76.358-17.824,76-17.581,76
		c0.244,0,0.976,0.357,1.684,0.701c1.96,0.957,4.923,2.404,8.502,2.404c3.539,0,6.463-1.428,8.398-2.371
		C1.745,76.374,2.51,76,2.792,76c0.281,0,1.047,0.373,1.788,0.734c1.935,0.943,4.86,2.371,8.398,2.371
		c3.501,0,6.387-1.408,8.297-2.34C22.083,76.372,22.846,76,23.165,76s1.081,0.371,1.889,0.766c1.91,0.932,4.797,2.34,8.298,2.34
		c0.295,0,0.534-0.24,0.534-0.535S33.646,78.036,33.352,78.036z"/>
	<rect x="107.102" y="16.307" fill="#1B1C20" width="5.607" height="12.235"/>
	<path fill="#1B1C20" d="M113.725,14.999H99.944V29.85h13.781V14.999z M113.243,29.077h-6.141h-0.535h-6.143V15.772h6.143h0.535
		h6.141V29.077z"/>
	<rect x="100.959" y="16.307" fill="#1B1C20" width="5.607" height="12.235"/>
	<rect x="85.784" y="16.307" fill="#1B1C20" width="5.607" height="12.235"/>
	<path fill="#1B1C20" d="M160.311-5.762h-2.051v-1.957h1.563c0.146,0,0.266-0.12,0.266-0.267c0-0.148-0.119-0.268-0.266-0.268H154
		l-1.336-12.314h1.605v-0.722h-1.939v-2.283c0-0.206-0.166-0.372-0.373-0.372h-0.002v-8.19c0-0.081-0.066-0.147-0.146-0.147h-0.195
		c-0.082,0-0.146,0.066-0.146,0.147v8.19h-0.004c-0.205,0-0.371,0.167-0.371,0.372v2.283h-1.904v0.722h1.133l-1.336,12.314h-12.1
		c-0.145-1.172-1.133-2.083-2.344-2.083h-1.061c-1.211,0-2.199,0.911-2.344,2.083h-7.68v-2.526h1.713v-0.748h-4.361v0.748h1.713
		v2.526h-3.258c-0.148,0-0.268,0.12-0.268,0.268c0,0.147,0.119,0.267,0.268,0.267h1.484v1.957h-2.051v1.582h41.613V-5.762z
		 M122.522-5.762h-1.238v-1.957h1.238V-5.762z M126.823-5.762h-3.365v-1.957h3.365V-5.762z M131.108-5.762h-3.75v-1.957h3.75V-5.762
		z M139.104-5.762h-2.189v-1.957h2.189V-5.762z M145.311-5.762h-5.672v-1.957h5.672V-5.762z M148.715-5.762h-2.869v-1.957h3.08
		L148.715-5.762z M150.985-20.527l1.332,12.274h-2.666L150.985-20.527z M151.52-5.762h-2.139l0.213-1.957h1.926V-5.762z
		 M152.053-5.762v-1.957h0.32l0.213,1.957H152.053z M157.727-5.762h-3.457l-0.211-1.957h3.668V-5.762z"/>
	<polygon fill="#1B1C20" points="17.909,32.778 -13.806,32.778 -17.547,36.04 22.704,36.04 	"/>
	<rect x="25.08" y="16.307" fill="#1B1C20" width="5.607" height="12.235"/>
	<rect x="40.256" y="16.307" fill="#1B1C20" width="5.607" height="12.235"/>
	<rect x="31.223" y="16.307" fill="#1B1C20" width="5.606" height="12.235"/>
	<rect x="46.397" y="16.307" fill="#1B1C20" width="5.607" height="12.235"/>
	<path fill="#1B1C20" d="M53.021,14.999H39.24V29.85h13.781V14.999z M52.539,29.077h-6.142h-0.534h-6.142V15.772h6.142h0.534h6.142
		V29.077z"/>
	<path fill="#1B1C20" d="M-80.919,59.708c0,0-1.088,0.189-2.613,0.576c-0.551,0.139-1.159,0.305-1.793,0.496
		c-0.163,0.049-0.506,0.166-0.887,0.281c-0.289,0.088-0.38,0.301,0.039,0.271c0.688-0.047,1.607-0.113,2.765-0.113
		c7.374,0,9.742,5.025,15.057,5.025c5.314,0,6.282-4.064,12.59-4.064c6.055,0,6.833,4.064,12.147,4.064s6.577-3.512,10.628-3.512
		c4.052,0,5.314,3.512,10.629,3.512s7.164-3.104,10.629-3.104c3.466,0,5.315,3.104,10.629,3.104c5.313,0,7.544-2.701,10.627-2.701
		s5.314,2.701,10.628,2.701c5.314,0,8.74-2.389,10.628-2.389c1.89,0,5.315,2.389,10.631,2.389c5.314,0,9.127-1.768,10.63-1.768
		s5.315,1.768,10.63,1.768c5.314,0,8.805-1.516,10.631-1.516c1.824,0,5.316,1.516,10.631,1.516c5.324,0,9.27-1.502,10.646-1.502
		s5.324,1.502,10.648,1.502c5.322,0,9.451-1.502,10.645-1.502c1.195,0,5.324,1.502,10.648,1.502c5.322,0,9.361-1.502,10.646-1.502
		c1.283,0,5.322,1.502,10.646,1.502c5.322,0,9.273-1.502,10.646-1.502s5.324,1.502,10.646,1.502c5.324,0,9.271-1.502,10.646-1.502
		c0.844,0,2.658,0.564,5.16,1.002c1.979-0.518,3.818-1.373,5.461-2.496c0.039,0,0.078,0.002,0.119,0.002
		c3.072,0,5.629-0.408,7.32-0.678c0.811-0.129,1.451-0.23,1.797-0.23s0.986,0.102,1.797,0.23c1.691,0.27,4.248,0.678,7.32,0.678
		h10.928c0.295,0,0.535-0.24,0.535-0.535s-0.24-0.533-0.535-0.533h-10.928c-2.988,0-5.494-0.4-7.152-0.664
		c-0.891-0.143-1.533-0.246-1.965-0.246s-1.074,0.104-1.965,0.246c-1.406,0.223-3.43,0.543-5.834,0.635
		c3.797-3.217,6.207-8.02,6.207-13.387V37.206h-11.506v-8.361h2.268v-1.807h-0.615V25.28h0.643c0.148,0,0.268-0.119,0.268-0.268
		c0-0.147-0.119-0.268-0.268-0.268h-4.189l0.23-3.988h3.932V18.95h-0.615v-1.899h0.643c0.148,0,0.268-0.12,0.268-0.267
		c0-0.148-0.119-0.268-0.268-0.268h-3.715l1.207-20.987h-14.498l-4.127,15.323l-5.822-3.328c-0.004-0.002-0.01-0.002-0.014-0.005
		c-0.016-0.008-0.033-0.012-0.049-0.017c-0.02-0.005-0.037-0.01-0.055-0.011c-0.006,0-0.01-0.003-0.014-0.003h-12.385V-2.514
		h-30.078l1.518,7.127h-1.518v9.978h8.908v-3.259h33.977l4.678,2.688l-0.672,2.497h-6.678v0v-3.742h-29.852v3.294h-7.629v21.137
		h-1.955l-2.617,2.617c-0.799,0.798-1.828,1.324-2.943,1.506l-0.756,0.123V31.307H99.944v12.379l-1.395,0.227V31.307H84.768v13.038
		h-1.395V31.307H69.592v13.038h-1.395V31.307H54.416v13.038h-1.395V31.307H39.24v13.038h-1.395V31.307H24.064v13.038h-1.36v-7.14
		H12.059v7.14h-1.321v-7.14H-6.011v7.14h-1.321v-7.14h-10.215v7.14h-1.841v-7.14h-10.497v7.14h-0.782
		c-0.181,0-0.36-0.011-0.539-0.028v-7.111h-10.21l-1.436-1.166h23.464l-4.795-3.262h-22.684l-3.336-2.711h-50.189l20.551,24.83
		C-78.674,56.497-79.181,58.758-80.919,59.708z M185.067,17.051h2.57v1.899h-2.68L185.067,17.051z M127.047,1.584h-6.684
		l-0.496-2.405h7.18V1.584z M127.045,37.735l-1.471-1.304h20.344c-0.432,1.364-1.693,2.302-3.133,2.302h-13.109
		C128.708,38.733,127.772,38.377,127.045,37.735z M168.01,46.618c0-0.738,0.598-1.337,1.336-1.337s1.336,0.599,1.336,1.337
		c0,0.737-0.598,1.336-1.336,1.336S168.01,47.355,168.01,46.618z M176.543,46.618c0-0.738,0.6-1.337,1.338-1.337
		s1.336,0.599,1.336,1.337c0,0.737-0.598,1.336-1.336,1.336S176.543,47.355,176.543,46.618z M160.813,47.954
		c-0.738,0-1.336-0.599-1.336-1.336c0-0.738,0.598-1.337,1.336-1.337s1.336,0.599,1.336,1.337
		C162.149,47.355,161.551,47.954,160.813,47.954z M142.407,46.618c0-0.738,0.6-1.337,1.338-1.337s1.336,0.599,1.336,1.337
		c0,0.737-0.598,1.336-1.336,1.336S142.407,47.355,142.407,46.618z M150.942,46.618c0-0.738,0.598-1.337,1.336-1.337
		s1.336,0.599,1.336,1.337c0,0.737-0.598,1.336-1.336,1.336S150.942,47.355,150.942,46.618z M156.278,40.395h-13.869
		c-0.297,0-0.535-0.238-0.535-0.534c0-0.295,0.238-0.534,0.535-0.534h13.869c0.295,0,0.535,0.239,0.535,0.534
		C156.813,40.157,156.573,40.395,156.278,40.395z M190.415,39.327c0.295,0,0.535,0.239,0.535,0.534c0,0.296-0.24,0.534-0.535,0.534
		h-13.871c-0.295,0-0.533-0.238-0.533-0.534c0-0.295,0.238-0.534,0.533-0.534H190.415z M184.594,25.28h3.043v1.758h-3.145
		L184.594,25.28z M181.034,31.167h1.99v2.006h-1.99V31.167z M175.411,31.167h1.99v2.006h-1.99V31.167z M169.827,31.167h1.99v2.006
		h-1.99V31.167z M137.098,1.584h-6.684v-2.405h6.684V1.584z M147.147,1.584h-6.684v-2.405h6.684V1.584z M163.68,10.86l-1.531-0.88
		h-12.807V8.023h2.4v1.957h0.535V8.023h5.672v1.957h0.535V8.023h3.17l2.025,1.158V10.86z M164.215,11.167V9.486l3.32,1.898
		l-0.393,1.463L164.215,11.167z M166.194,31.167v2.006h-1.99v-2.006H166.194z M163.342,17.051h2.668l-0.512,1.899h-2.156V17.051z
		 M159.477,17.069l0.047-0.018h3.283v1.899h-3.33V17.069z M159.477,20.757h5.535l-1.074,3.988h-4.461V20.757z M163.793,25.28
		l-0.451,1.68v-1.68H163.793z M159.477,25.28h3.33v1.758h-3.33V25.28z M159.477,39.327h13.869c0.295,0,0.535,0.239,0.535,0.534
		c0,0.296-0.24,0.534-0.535,0.534h-13.869c-0.297,0-0.535-0.238-0.535-0.534C158.942,39.566,159.18,39.327,159.477,39.327z
		 M154.965,13.789h1.99v2.007h-1.99V13.789z M149.342,13.789h1.992v2.007h-1.992V13.789z M143.719,13.789h1.992v2.007h-1.992V13.789
		z M138.096,13.789h1.992v2.007h-1.992V13.789z M138.096,18.85h1.992v2.007h-1.992V18.85z M132.473,13.789h1.992v2.007h-1.992
		V13.789z M132.473,18.85h1.992v2.007h-1.992V18.85z M124.584,34.944h4.361v-2.596h0.508v2.596h12.953v-2.596h0.51v2.596h3.242
		c0.094,0,0.162,0.09,0.137,0.181l-0.158,0.563h-21.402l-0.324-0.286C124.231,35.241,124.344,34.944,124.584,34.944z
		 M100.424,32.081h6.143h0.535h6.141v9.449l-0.533,0.086v-9h-5.607v9.909l-0.535,0.087v-9.996h-5.607v10.905l-0.535,0.087V32.081z
		 M85.249,32.081h6.143h0.533h6.143v11.91l-0.535,0.086V32.616h-5.607v11.729h-0.533V32.616h-5.607v11.729h-0.535V32.081z
		 M70.073,32.081h6.143h0.535h6.141v12.265h-0.535V32.616H76.75v11.729h-0.535V32.616h-5.607v11.729h-0.535V32.081z M54.897,32.081
		h6.142h0.535h6.141v12.265h-0.533V32.616h-5.608v11.729h-0.535V32.616h-5.607v11.729h-0.534V32.081z M39.722,32.081h6.142h0.534
		h6.142v12.265h-0.534V32.616h-5.607v11.729h-0.534V32.616h-5.607v11.729h-0.534V32.081z M24.546,32.081h6.142h0.535h6.142v12.265
		h-0.535V32.616h-5.606v11.729h-0.535V32.616H25.08v11.729h-0.534V32.081z M-67.867,32.639h13.871c0.295,0,0.534,0.238,0.534,0.533
		c0,0.296-0.239,0.535-0.534,0.535h-13.871c-0.295,0-0.534-0.239-0.534-0.535C-68.401,32.877-68.162,32.639-67.867,32.639z
		 M-84.935,32.639h13.871c0.296,0,0.535,0.238,0.535,0.533c0,0.296-0.239,0.535-0.535,0.535h-13.871
		c-0.295,0-0.534-0.239-0.534-0.535C-85.469,32.877-85.23,32.639-84.935,32.639z M-85.166,41.59l-2.141-3.541
		c-0.34-0.563-0.153-1.019,0.418-1.019h4.603c0.571,0,1.309,0.456,1.649,1.019l2.141,3.541c0.34,0.563,0.153,1.02-0.418,1.02h-4.603
		C-84.087,42.61-84.826,42.153-85.166,41.59z"/>
	<path fill="#1B1C20" d="M37.846,14.999H24.064V29.85h13.781V14.999z M37.364,29.077h-6.142h-0.535h-6.142V15.772h6.142h0.535h6.142
		V29.077z"/>
	<path fill="#1B1C20" d="M-72.043,12.995c0.15,0,0.284-0.174,0.377-0.446h0.942c0.249,0,0.469-0.111,0.621-0.284l-0.068,15.676
		h0.913l-0.084-19.263h3.215V8.147h-3.217l-0.014-3.178h-0.713l-0.027,6.194c-0.152-0.176-0.375-0.29-0.625-0.29h-0.894
		c-0.092-0.363-0.249-0.601-0.426-0.601C-72.326,10.272-72.326,12.995-72.043,12.995z"/>
	<rect x="76.75" y="16.307" fill="#1B1C20" width="5.605" height="12.235"/>
	<rect x="91.924" y="16.307" fill="#1B1C20" width="5.607" height="12.235"/>
	<rect x="70.608" y="16.307" fill="#1B1C20" width="5.607" height="12.235"/>
	<path fill="#1B1C20" d="M98.549,14.999H84.768V29.85h13.781V14.999z M98.067,29.077h-6.143h-0.533h-6.143V15.772h6.143h0.533h6.143
		V29.077z"/>
	<rect x="55.432" y="16.307" fill="#1B1C20" width="5.607" height="12.235"/>
	<path fill="#1B1C20" d="M83.374,14.999H69.592V29.85h13.781V14.999z M82.891,29.077H76.75h-0.535h-6.143V15.772h6.143h0.535h6.141
		V29.077z"/>
	<rect x="61.574" y="16.307" fill="#1B1C20" width="5.608" height="12.235"/>
	<path fill="#1B1C20" d="M68.198,14.999H54.416V29.85h13.782V14.999z M67.715,29.077h-6.141h-0.535h-6.142V15.772h6.142h0.535h6.141
		V29.077z"/>
	<path fill="#1B1C20" d="M-44.977,74.252c0-0.297-0.239-0.535-0.535-0.535c-3.292,0-6.083-1.361-7.93-2.262
		c-1.041-0.508-1.729-0.844-2.257-0.844c-0.528,0-1.215,0.336-2.256,0.844c-1.847,0.9-4.638,2.262-7.93,2.262
		c-3.332,0-6.162-1.381-8.034-2.295c-1-0.488-1.661-0.811-2.152-0.811s-1.152,0.322-2.152,0.811
		c-1.873,0.914-4.702,2.295-8.034,2.295c-3.253,0-6.005-1.342-7.826-2.23c-1.042-0.508-1.793-0.875-2.361-0.875
		s-1.32,0.367-2.361,0.875c-1.82,0.889-4.572,2.23-7.825,2.23c-0.295,0-0.535,0.238-0.535,0.535c0,0.295,0.239,0.533,0.535,0.533
		c3.5,0,6.385-1.406,8.293-2.338c0.809-0.395,1.572-0.768,1.893-0.768c0.32,0,1.084,0.373,1.892,0.768
		c1.909,0.932,4.795,2.338,8.294,2.338c3.579,0,6.542-1.445,8.503-2.402c0.708-0.346,1.439-0.703,1.683-0.703
		s0.976,0.357,1.684,0.703c1.961,0.957,4.924,2.402,8.503,2.402c3.539,0,6.463-1.426,8.398-2.369
		c0.74-0.361,1.506-0.736,1.787-0.736c0.282,0,1.048,0.375,1.788,0.736c1.936,0.943,4.86,2.369,8.398,2.369
		C-45.215,74.786-44.977,74.547-44.977,74.252z"/>
	<path fill="#1B1C20" d="M92.375,74.252c0-0.297-0.24-0.535-0.535-0.535c-3.291,0-6.082-1.361-7.93-2.262
		c-1.041-0.508-1.729-0.844-2.256-0.844s-1.217,0.336-2.256,0.844c-1.848,0.9-4.639,2.262-7.93,2.262
		c-3.334,0-6.162-1.381-8.035-2.295c-1-0.488-1.66-0.811-2.152-0.811c-0.491,0-1.151,0.322-2.151,0.811
		c-1.873,0.914-4.702,2.295-8.034,2.295c-3.253,0-6.006-1.342-7.826-2.23c-1.042-0.508-1.794-0.875-2.361-0.875
		s-1.319,0.367-2.36,0.875c-1.82,0.889-4.572,2.23-7.825,2.23c-0.295,0-0.534,0.238-0.534,0.535c0,0.295,0.239,0.533,0.534,0.533
		c3.5,0,6.385-1.406,8.294-2.338c0.808-0.395,1.571-0.768,1.892-0.768s1.084,0.373,1.893,0.768c1.909,0.932,4.795,2.338,8.295,2.338
		c3.579,0,6.542-1.445,8.503-2.402c0.707-0.346,1.438-0.703,1.683-0.703s0.976,0.357,1.683,0.703
		c1.961,0.957,4.924,2.402,8.504,2.402c3.537,0,6.463-1.426,8.396-2.369c0.742-0.361,1.508-0.736,1.789-0.736
		s1.047,0.375,1.787,0.736c1.936,0.943,4.859,2.369,8.398,2.369C92.135,74.786,92.375,74.547,92.375,74.252z"/>
	<path fill="#1B1C20" d="M170.704,78.036c-3.254,0-6.008-1.342-7.828-2.23c-1.041-0.508-1.791-0.873-2.357-0.873
		s-1.318,0.365-2.359,0.873c-1.82,0.889-4.574,2.23-7.828,2.23c-3.293,0-6.084-1.361-7.93-2.262
		c-1.041-0.508-1.729-0.842-2.256-0.842c-0.529,0-1.217,0.334-2.258,0.842c-1.846,0.9-4.637,2.262-7.93,2.262
		c-3.332,0-6.162-1.381-8.035-2.293c-1-0.488-1.66-0.811-2.15-0.811c-0.492,0-1.152,0.322-2.152,0.811
		c-1.871,0.912-4.701,2.293-8.033,2.293c-3.254,0-6.006-1.342-7.826-2.23c-1.041-0.508-1.793-0.873-2.361-0.873
		c-0.566,0-1.32,0.365-2.361,0.873c-1.82,0.889-4.572,2.23-7.824,2.23c-0.295,0-0.535,0.24-0.535,0.535s0.24,0.535,0.535,0.535
		c3.5,0,6.385-1.408,8.293-2.34C98.315,76.374,99.079,76,99.399,76s1.084,0.373,1.893,0.766c1.908,0.932,4.795,2.34,8.295,2.34
		c3.578,0,6.541-1.447,8.502-2.404c0.707-0.344,1.439-0.701,1.684-0.701s0.975,0.357,1.682,0.701
		c1.963,0.957,4.926,2.404,8.504,2.404c3.539,0,6.463-1.428,8.398-2.371c0.74-0.361,1.506-0.734,1.789-0.734
		c0.281,0,1.047,0.373,1.787,0.734c1.936,0.943,4.859,2.371,8.398,2.371c3.502,0,6.387-1.408,8.297-2.34
		c0.809-0.395,1.57-0.766,1.891-0.766c0.318,0,1.08,0.371,1.889,0.766c1.91,0.932,4.797,2.34,8.297,2.34
		c0.295,0,0.535-0.24,0.535-0.535S170.999,78.036,170.704,78.036z"/>
	<path fill="#1B1C20" d="M229.194,73.717c-3.293,0-6.084-1.361-7.932-2.262c-1.039-0.508-1.727-0.844-2.256-0.844
		c-0.527,0-1.215,0.336-2.256,0.844c-1.848,0.9-4.639,2.262-7.93,2.262c-3.332,0-6.162-1.381-8.035-2.295
		c-1-0.488-1.66-0.811-2.15-0.811c-0.492,0-1.152,0.322-2.152,0.811c-1.873,0.914-4.703,2.295-8.035,2.295
		c-3.252,0-6.004-1.342-7.826-2.23c-1.041-0.508-1.793-0.875-2.359-0.875c-0.568,0-1.32,0.367-2.361,0.875
		c-1.82,0.889-4.572,2.23-7.826,2.23c-0.295,0-0.533,0.238-0.533,0.535c0,0.295,0.238,0.533,0.533,0.533
		c3.5,0,6.385-1.406,8.295-2.338c0.809-0.395,1.572-0.768,1.893-0.768s1.084,0.373,1.891,0.768c1.91,0.932,4.795,2.338,8.295,2.338
		c3.58,0,6.543-1.445,8.504-2.402c0.707-0.346,1.439-0.703,1.684-0.703c0.242,0,0.975,0.357,1.682,0.703
		c1.961,0.957,4.924,2.402,8.504,2.402c3.539,0,6.463-1.426,8.398-2.369c0.74-0.361,1.506-0.736,1.787-0.736
		s1.047,0.375,1.787,0.736c1.936,0.943,4.861,2.369,8.4,2.369c0.295,0,0.533-0.238,0.533-0.533
		C229.727,73.956,229.489,73.717,229.194,73.717z"/>
	<path fill="#1B1C20" d="M203.174,66.725c-0.975-0.221-1.678-0.379-2.121-0.379c-0.445,0-1.111,0.15-2.123,0.379
		c-1.98,0.447-4.973,1.125-8.523,1.125c-3.471,0-6.381-0.658-8.309-1.094c-1.055-0.238-1.816-0.41-2.34-0.41s-1.285,0.172-2.34,0.41
		c-1.926,0.436-4.836,1.094-8.307,1.094s-6.383-0.658-8.309-1.094c-1.055-0.238-1.816-0.41-2.338-0.41s-1.283,0.172-2.336,0.41
		c-1.928,0.436-4.84,1.094-8.311,1.094c-3.51,0-6.463-0.668-8.416-1.109c-1.016-0.23-1.748-0.395-2.23-0.395
		s-1.217,0.164-2.232,0.395c-1.953,0.441-4.904,1.109-8.414,1.109c-3.553,0-6.545-0.678-8.525-1.125
		c-1.01-0.229-1.678-0.379-2.121-0.379c-0.445,0-1.148,0.158-2.123,0.379c-1.98,0.447-4.973,1.125-8.523,1.125
		c-3.471,0-6.381-0.658-8.307-1.094c-1.057-0.238-1.818-0.41-2.342-0.41s-1.285,0.172-2.34,0.41
		c-1.926,0.436-4.838,1.094-8.307,1.094c-3.291,0-5.896-0.6-7.799-1.035c-1.172-0.27-2.098-0.482-2.832-0.482
		c-0.736,0-1.662,0.213-2.834,0.482c-1.902,0.436-4.506,1.035-7.797,1.035c-3.4,0-6.131-0.729-8.126-1.26
		c-1.109-0.295-1.912-0.51-2.504-0.51s-1.394,0.215-2.504,0.51c-1.995,0.531-4.727,1.26-8.127,1.26c-3.235,0-5.798-0.93-7.669-1.607
		c-1.207-0.438-2.161-0.783-2.961-0.783s-1.753,0.346-2.96,0.783c-1.871,0.678-4.434,1.607-7.668,1.607
		c-2.906,0-4.857-0.84-6.578-1.58c-1.341-0.578-2.607-1.123-4.051-1.123c-1.442,0-2.709,0.545-4.05,1.123
		c-1.721,0.74-3.671,1.58-6.577,1.58c-2.813,0-4.564-0.887-6.258-1.742c-1.387-0.701-2.696-1.363-4.371-1.363
		c-1.676,0-2.985,0.662-4.372,1.363c-1.694,0.855-3.445,1.742-6.258,1.742c-2.69,0-4.279-0.945-5.814-1.861
		c-1.366-0.813-2.778-1.652-4.814-1.652s-3.448,0.84-4.814,1.652c-1.536,0.916-3.125,1.861-5.814,1.861
		c-2.416,0-3.843-0.9-5.354-1.852c-1.727-1.088-3.513-2.215-6.793-2.215c-3.438,0-5.415,1.191-7.16,2.24
		c-1.561,0.939-3.035,1.826-5.43,1.826c-2.296,0-3.993-0.99-5.958-2.135c-2.328-1.355-4.966-2.893-9.099-2.893
		c-4.697,0-7.184,1.764-9.181,3.182c-1.452,1.031-2.598,1.846-4.228,1.846c-0.295,0-0.535,0.238-0.535,0.533
		s0.239,0.535,0.535,0.535c1.971,0,3.367-0.992,4.847-2.041c1.971-1.4,4.206-2.986,8.562-2.986c3.844,0,6.243,1.396,8.561,2.748
		c2.012,1.172,3.911,2.279,6.496,2.279c2.691,0,4.363-1.006,5.98-1.979c1.706-1.025,3.469-2.086,6.609-2.086
		c2.972,0,4.551,0.994,6.224,2.049c1.572,0.99,3.198,2.016,5.923,2.016c2.984,0,4.778-1.068,6.361-2.01
		c1.355-0.807,2.526-1.504,4.268-1.504c1.742,0,2.912,0.697,4.267,1.504c1.583,0.941,3.377,2.01,6.361,2.01
		c3.068,0,5.019-0.986,6.74-1.857c1.324-0.67,2.469-1.248,3.89-1.248s2.564,0.578,3.889,1.248c1.721,0.871,3.673,1.857,6.74,1.857
		c3.127,0,5.274-0.924,7-1.666c1.29-0.557,2.404-1.035,3.627-1.035c1.223,0,2.337,0.479,3.628,1.035
		c1.726,0.742,3.874,1.666,7,1.666c3.423,0,6.087-0.967,8.033-1.672c1.108-0.402,1.984-0.719,2.596-0.719
		c0.612,0,1.488,0.316,2.597,0.719c1.945,0.705,4.61,1.672,8.033,1.672c3.54,0,6.467-0.779,8.402-1.295
		c0.992-0.266,1.776-0.475,2.229-0.475s1.236,0.209,2.229,0.475c1.936,0.516,4.861,1.295,8.401,1.295
		c3.412,0,6.084-0.613,8.035-1.063c1.107-0.254,1.98-0.455,2.596-0.455c0.613,0,1.486,0.201,2.594,0.455
		c1.951,0.449,4.625,1.063,8.037,1.063c3.59,0,6.57-0.674,8.543-1.119c0.949-0.215,1.699-0.385,2.104-0.385s1.154,0.17,2.105,0.385
		c1.973,0.445,4.953,1.119,8.543,1.119c3.672,0,6.732-0.693,8.758-1.15c0.873-0.197,1.563-0.354,1.889-0.354
		c0.324,0,1.014,0.156,1.885,0.354c2.027,0.457,5.09,1.15,8.762,1.15c3.629,0,6.65-0.684,8.65-1.135
		c0.912-0.207,1.633-0.369,1.996-0.369s1.084,0.162,1.996,0.369c1.998,0.451,5.021,1.135,8.65,1.135c3.59,0,6.572-0.674,8.545-1.121
		c0.949-0.213,1.699-0.383,2.102-0.383s1.152,0.17,2.102,0.385c1.973,0.445,4.955,1.119,8.545,1.119s6.57-0.674,8.543-1.119
		c0.949-0.215,1.699-0.385,2.104-0.385s1.154,0.17,2.105,0.385c1.973,0.445,4.953,1.119,8.543,1.119c3.67,0,6.732-0.693,8.76-1.15
		c0.873-0.197,1.561-0.354,1.887-0.354c0.324,0,1.014,0.156,1.887,0.354c2.025,0.457,5.088,1.15,8.76,1.15h13.848
		c0.295,0,0.533-0.24,0.533-0.535s-0.238-0.533-0.533-0.533H211.7C208.147,67.85,205.155,67.172,203.174,66.725z"/>
</g>
</svg>
